<?xml version="1.0" standalone="no"?>
<!DOCTYPE svg PUBLIC "-//W3C//DTD SVG 20010904//EN"
 "http://www.w3.org/TR/2001/REC-SVG-20010904/DTD/svg10.dtd">
<svg version="1.0" xmlns="http://www.w3.org/2000/svg"
 width="723.000000pt" height="723.000000pt" viewBox="0 0 723.000000 723.000000"
 preserveAspectRatio="xMidYMid meet">
<metadata>
Created by potrace 1.14, written by Peter Selinger 2001-2017
</metadata>
<g transform="translate(0.000000,723.000000) scale(0.100000,-0.100000)"
fill="#000000" stroke="none">
<path d="M2498 5675 c-2 -1 -37 -5 -78 -8 -412 -33 -732 -341 -881 -847 -27
-89 -57 -228 -65 -292 -4 -29 -8 -60 -9 -68 -1 -12 -19 -15 -81 -17 -89 -2
-186 -10 -224 -17 -14 -3 -38 -8 -55 -12 -243 -50 -459 -224 -564 -455 -74
-164 -101 -290 -115 -545 -2 -42 9 -186 18 -240 12 -66 68 -221 103 -284 122
-220 327 -374 594 -449 41 -11 88 -23 104 -26 17 -2 39 -7 50 -9 62 -12 165
-20 275 -20 l124 -1 12 -70 c32 -185 115 -373 222 -505 147 -180 321 -295 567
-372 454 -142 846 -98 1179 132 77 53 204 171 251 233 l28 38 50 -55 c79 -88
227 -176 392 -231 76 -26 246 -70 305 -80 19 -3 42 -8 50 -10 8 -2 39 -7 69
-10 30 -4 62 -8 71 -10 34 -7 176 -18 220 -18 386 1 706 166 917 474 46 67
116 203 146 286 30 81 77 257 77 286 0 11 12 22 33 29 64 23 223 110 300 166
231 166 383 407 422 666 7 50 8 245 1 277 -3 13 -8 53 -11 89 -5 69 -13 116
-30 180 -1 3 -5 22 -9 43 -5 20 -12 40 -17 43 -5 3 -9 12 -9 20 0 26 -79 174
-124 233 -117 152 -266 254 -465 321 -178 60 -291 75 -542 74 l-177 0 -17 55
c-26 87 -118 269 -172 343 -75 103 -159 193 -241 259 -66 53 -176 129 -186
129 -2 0 -37 18 -77 41 -147 83 -285 121 -453 123 -139 1 -218 -9 -377 -48
-130 -33 -400 -159 -547 -256 -51 -34 -94 -60 -95 -58 -78 134 -223 263 -407
360 -87 46 -126 59 -274 88 -73 15 -269 33 -278 25z"/>
</g>
</svg>
